<svg width="309" height="54" viewBox="0 0 309 54" fill="none" xmlns="http://www.w3.org/2000/svg">
<path fill-rule="evenodd" clip-rule="evenodd" d="M48.8222 25.676H21.6379L38.4098 53.9995H48.0126L46.0886 51.0091L35.8597 33.7336H48.8222V25.676Z" fill="#3023AE"/>
<path fill-rule="evenodd" clip-rule="evenodd" d="M8.68142 27C8.68142 16.5553 17.284 8.0576 27.8575 8.0576H48.8221V0H27.8575C12.7854 0 0.524414 12.1126 0.524414 27C0.524414 41.8874 12.7854 54 27.8575 54V45.9424C17.284 45.9424 8.68142 37.4447 8.68142 27Z" fill="#3023AE"/>
<path fill-rule="evenodd" clip-rule="evenodd" d="M66.4755 53.9995H49.6108V45.9419H66.4755C72.0803 45.9419 76.6401 41.4377 76.6401 35.9021H84.7971C84.7971 45.8804 76.5779 53.9995 66.4755 53.9995Z" fill="black"/>
<path fill-rule="evenodd" clip-rule="evenodd" d="M71.2114 26.1555L66.8372 18.0979H57.3669L67.3185 35.9022H76.646L71.2114 26.1555Z" fill="black"/>
<path fill-rule="evenodd" clip-rule="evenodd" d="M57.3191 18.0984H49.1621C49.1621 8.11904 57.3813 0 67.4828 0H84.3474V8.0576H67.4828C61.8789 8.0576 57.3191 12.5618 57.3191 18.0984Z" fill="black"/>
<path fill-rule="evenodd" clip-rule="evenodd" d="M110.98 18.1291C108.226 18.1291 106.478 18.4791 105.737 19.179C104.997 19.8801 104.627 21.5243 104.627 24.1118L104.608 26.6823L104.646 29.9644C104.646 32.5029 105.013 34.1183 105.747 34.813C106.481 35.5065 108.183 35.8533 110.852 35.8533C113.447 35.8533 115.096 35.5599 115.8 34.9719C116.504 34.384 116.856 32.9969 116.856 30.8084L116.875 29.7574H110.576V26.1755H121.612L121.685 31.2587C121.685 34.9591 121.003 37.345 119.638 38.4141C118.273 39.4833 115.228 40.0179 110.503 40.0179C106.17 40.0179 103.298 39.3051 101.891 37.8796C100.483 36.454 99.7791 33.5464 99.7791 29.1578C99.7791 23.5559 100.061 20.0177 100.624 18.542C101.322 16.7409 102.381 15.5277 103.801 14.9035C105.22 14.2782 107.632 13.9656 111.036 13.9656H119.475V18.1301L110.98 18.1291Z" fill="#3023AE"/>
<path fill-rule="evenodd" clip-rule="evenodd" d="M135.935 28.9706L135.916 28.2578C135.916 26.8323 135.675 25.9072 135.191 25.4814C134.707 25.0568 133.657 24.8444 132.041 24.8444C130.474 24.8444 129.456 25.1005 128.985 25.6137C128.514 26.1259 128.278 27.2452 128.278 28.9706H135.935ZM135.898 34.0538H140.121V34.7474C140.121 38.2483 137.551 39.9993 132.409 39.9993C128.92 39.9993 126.638 39.3932 125.56 38.18C124.483 36.9668 123.944 34.3974 123.944 30.4708C123.944 26.9827 124.508 24.6374 125.634 23.437C126.76 22.2366 128.957 21.637 132.225 21.637C135.359 21.637 137.459 22.2217 138.524 23.3911C139.589 24.5595 140.121 26.8579 140.121 30.283V31.5965H128.241C128.216 31.9966 128.205 32.2591 128.205 32.384C128.205 34.1477 128.47 35.3225 129.003 35.9104C129.535 36.4984 130.598 36.7918 132.189 36.7918C133.732 36.7918 134.735 36.62 135.2 36.2764C135.665 35.9318 135.898 35.1913 135.898 34.0538Z" fill="#3023AE"/>
<path fill-rule="evenodd" clip-rule="evenodd" d="M154.713 28.9706L154.694 28.2578C154.694 26.8323 154.453 25.9072 153.969 25.4814C153.486 25.0568 152.436 24.8444 150.82 24.8444C149.253 24.8444 148.234 25.1005 147.763 25.6137C147.292 26.1259 147.056 27.2452 147.056 28.9706H154.713ZM154.676 34.0538H158.9V34.7474C158.9 38.2483 156.329 39.9993 151.187 39.9993C147.698 39.9993 145.416 39.3932 144.338 38.18C143.261 36.9668 142.722 34.3974 142.722 30.4708C142.722 26.9827 143.286 24.6374 144.412 23.437C145.538 22.2366 147.735 21.637 151.004 21.637C154.137 21.637 156.237 22.2217 157.303 23.3911C158.367 24.5595 158.9 26.8579 158.9 30.283V31.5965H147.019C146.994 31.9966 146.983 32.2591 146.983 32.384C146.983 34.1477 147.248 35.3225 147.781 35.9104C148.314 36.4984 149.376 36.7918 150.967 36.7918C152.51 36.7918 153.514 36.62 153.979 36.2764C154.443 35.9318 154.676 35.1913 154.676 34.0538Z" fill="#3023AE"/>
<path fill-rule="evenodd" clip-rule="evenodd" d="M166.202 14.1907V28.8397H167.285L172.022 21.8615H176.907L170.793 30.3026L178.155 39.7927H172.94L167.23 31.8402H166.202V39.7927H161.997V14.1907H166.202Z" fill="#3023AE"/>
<path fill-rule="evenodd" clip-rule="evenodd" d="M179.701 40.0179V36.1702L189.543 36.1168C191.673 36.1168 193.032 35.8853 193.619 35.4222C194.207 34.9602 194.501 33.891 194.501 32.2158C194.501 30.977 194.277 30.1554 193.831 29.7489C193.384 29.3424 192.42 29.0959 190.939 29.0084L188.313 28.8387C184.347 28.6018 181.813 28.0385 180.711 27.1507C179.609 26.2629 179.058 24.3562 179.058 21.4304C179.058 18.4417 179.723 16.4507 181.05 15.4562C182.379 14.4628 185.032 13.9656 189.01 13.9656H196.654V17.9722L189.341 17.8666C187.089 17.8666 185.616 18.0789 184.925 18.5047C184.233 18.9293 183.888 19.8235 183.888 21.1871C183.888 22.7994 184.17 23.7693 184.733 24.0937C185.296 24.4191 187.156 24.6688 190.314 24.8438C194.048 25.0572 196.463 25.6003 197.558 26.4763C198.654 27.3513 199.201 29.1706 199.201 31.9341C199.201 35.3347 198.559 37.5328 197.274 38.5272C195.988 39.5206 193.154 40.0179 188.772 40.0179H179.701Z" fill="black"/>
<path fill-rule="evenodd" clip-rule="evenodd" d="M217.377 21.8618V39.793H213.173L213.411 36.7168L213.338 36.6976C212.518 38.8989 210.632 39.999 207.682 39.999C203.703 39.999 201.714 37.9674 201.714 33.9031V21.8618H205.919V32.8713C205.919 34.3971 206.127 35.4001 206.544 35.8824C206.959 36.3636 207.823 36.6037 209.132 36.6037C211.826 36.6037 213.173 34.9541 213.173 31.6528V21.8618H217.377Z" fill="black"/>
<path fill-rule="evenodd" clip-rule="evenodd" d="M229.306 25.0317C227.702 25.0317 226.655 25.4009 226.165 26.1382C225.676 26.8766 225.431 28.4387 225.431 30.8278C225.431 33.1528 225.694 34.6978 226.221 35.4597C226.747 36.2226 227.818 36.6046 229.434 36.6046C231.074 36.6046 232.14 36.2418 232.629 35.5162C233.118 34.7907 233.364 33.2339 233.364 30.8459C233.364 28.395 233.115 26.8136 232.62 26.1009C232.124 25.3881 231.02 25.0317 229.306 25.0317ZM221.024 21.8616H225.303L225.138 24.5249L225.23 24.5441C226.245 22.6064 228.137 21.6365 230.903 21.6365C233.462 21.6365 235.221 22.2842 236.182 23.5784C237.143 24.8727 237.624 27.233 237.624 30.6581C237.624 34.2347 237.146 36.6857 236.192 38.0109C235.237 39.3362 233.467 39.9988 230.885 39.9988C228.13 39.9988 226.331 39.0609 225.486 37.1861H225.412V47.4828H221.024V21.8616Z" fill="black"/>
<path fill-rule="evenodd" clip-rule="evenodd" d="M248.999 25.0317C247.395 25.0317 246.349 25.4009 245.859 26.1382C245.369 26.8766 245.124 28.4387 245.124 30.8278C245.124 33.1528 245.388 34.6978 245.914 35.4597C246.441 36.2226 247.511 36.6046 249.127 36.6046C250.767 36.6046 251.833 36.2418 252.323 35.5162C252.812 34.7907 253.057 33.2339 253.057 30.8459C253.057 28.395 252.809 26.8136 252.313 26.1009C251.817 25.3881 250.713 25.0317 248.999 25.0317ZM240.717 21.8616H244.996L244.831 24.5249L244.923 24.5441C245.938 22.6064 247.83 21.6365 250.596 21.6365C253.155 21.6365 254.915 22.2842 255.876 23.5784C256.837 24.8727 257.317 27.233 257.317 30.6581C257.317 34.2347 256.84 36.6857 255.885 38.0109C254.93 39.3362 253.161 39.9988 250.578 39.9988C247.824 39.9988 246.024 39.0609 245.18 37.1861H245.106V47.4828H240.717V21.8616Z" fill="black"/>
<path fill-rule="evenodd" clip-rule="evenodd" d="M268.228 25.0505C266.478 25.0505 265.364 25.3728 264.887 26.0162C264.409 26.6606 264.17 28.1641 264.17 30.5275C264.17 33.2281 264.397 34.9162 264.85 35.5916C265.302 36.267 266.435 36.6042 268.247 36.6042C269.997 36.6042 271.102 36.2478 271.561 35.535C272.02 34.8223 272.25 33.1097 272.25 30.3963C272.25 28.1075 272.011 26.6446 271.534 26.0066C271.056 25.3696 269.954 25.0505 268.228 25.0505ZM268.265 21.6553C271.656 21.6553 273.878 22.2091 274.931 23.3156C275.984 24.422 276.51 26.7577 276.51 30.3205C276.51 34.2973 275.996 36.904 274.967 38.1428C273.939 39.3806 271.773 39.9994 268.468 39.9994C264.88 39.9994 262.557 39.4243 261.499 38.2741C260.44 37.1228 259.91 34.5907 259.91 30.6769C259.91 26.9135 260.43 24.469 261.471 23.3433C262.511 22.2187 264.776 21.6553 268.265 21.6553Z" fill="black"/>
<path fill-rule="evenodd" clip-rule="evenodd" d="M286.983 24.9756C284.903 24.9756 283.862 26.3947 283.862 29.233V39.7932H279.656V21.862H283.862L283.605 24.3759L283.697 24.394C284.7 22.5182 286.279 21.5803 288.434 21.5803H292.357V25.0503L286.983 24.9756Z" fill="black"/>
<path fill-rule="evenodd" clip-rule="evenodd" d="M302.309 40.0178C298.563 40.0178 296.69 38.2615 296.69 34.7478V25.1254H294.412V21.8614H296.69V17.8484H300.894V21.8614H307.652V25.1254H300.894V34.1279C300.894 35.7913 301.513 36.6225 302.749 36.6225H305.415V40.0178H302.309Z" fill="black"/>
</svg>
